<?xml version="1.0" encoding="iso-8859-1"?>
<!-- Generator: Adobe Illustrator 19.0.0, SVG Export Plug-In . SVG Version: 6.00 Build 0)  -->
<svg version="1.1" id="Layer_1" xmlns="http://www.w3.org/2000/svg" xmlns:xlink="http://www.w3.org/1999/xlink" x="0px" y="0px"
	 viewBox="0 0 512 512" style="enable-background:new 0 0 512 512;" xml:space="preserve">
<path style="fill:#314E55;" d="M415.396,0H96.604C43.34,0,0,43.34,0,96.609v318.788C0,468.66,43.34,512,96.604,512h318.792
	C468.66,512,512,468.66,512,415.396V96.609C512,43.34,468.66,0,415.396,0z"/>
<path style="fill:#C59981;" d="M492.679,415.396c0,42.613-34.67,77.283-77.283,77.283H96.604c-42.613,0-77.283-34.67-77.283-77.283
	V96.609c0-42.618,34.67-77.288,77.283-77.288h318.792c42.613,0,77.283,34.67,77.283,77.288V415.396z"/>
<path style="fill:#314E55;" d="M405.67,48.302h-19.255h-260.83H106.33c-32,0-58.028,26.033-58.028,58.028v299.34
	c0,32,26.028,58.028,58.028,58.028h299.34c32,0,58.028-26.028,58.028-58.028V106.33C463.698,74.335,437.67,48.302,405.67,48.302z"/>
<path style="fill:#E65F58;" d="M376.755,67.623V439.17l-116.83-51.925c-1.255-0.557-2.585-0.83-3.925-0.83s-2.67,0.274-3.925,0.83
	l-116.83,51.925V67.623H376.755z"/>
<g>
	<polygon style="fill:#D8D8D8;" points="340.886,444.377 171.114,444.377 256,406.651 	"/>
	<path style="fill:#D8D8D8;" d="M67.623,405.67V106.33c0-21.344,17.368-38.707,38.707-38.707h9.594v376.755h-9.594
		C84.991,444.377,67.623,427.009,67.623,405.67z"/>
	<path style="fill:#D8D8D8;" d="M444.377,405.67c0,21.34-17.368,38.707-38.707,38.707h-9.594V67.623h9.594
		c21.34,0,38.707,17.363,38.707,38.707V405.67z"/>
</g>
<path style="fill:#314E55;" d="M211.17,212.604l-7.274,42.415c-0.623,3.623,0.868,7.283,3.84,9.444
	c2.991,2.17,6.943,2.462,10.17,0.736L256,245.179l38.094,20.019c1.406,0.745,2.953,1.113,4.491,1.113c2,0,4-0.623,5.679-1.849
	c2.972-2.16,4.462-5.821,3.84-9.444l-7.274-42.415l30.821-30.033c2.632-2.571,3.576-6.406,2.443-9.906
	c-1.142-3.495-4.16-6.047-7.802-6.576l-42.585-6.189l-19.047-38.59c-3.245-6.594-14.075-6.594-17.321,0l-19.047,38.59l-42.585,6.189
	c-3.641,0.528-6.66,3.08-7.802,6.576c-1.132,3.5-0.189,7.335,2.443,9.906L211.17,212.604z"/>
<path style="fill:#D8D8D8;" d="M236.094,178.292c3.151-0.458,5.868-2.434,7.274-5.288L256,147.415l12.632,25.59
	c1.406,2.854,4.123,4.83,7.274,5.288l28.236,4.104l-20.434,19.915c-2.274,2.222-3.311,5.42-2.773,8.552l4.821,28.127l-25.264-13.278
	c-1.406-0.741-2.944-1.109-4.491-1.109c-1.547,0-3.085,0.368-4.491,1.109l-25.264,13.278l4.821-28.127
	c0.538-3.132-0.5-6.33-2.773-8.552l-20.434-19.915L236.094,178.292z"/>
<g>
</g>
<g>
</g>
<g>
</g>
<g>
</g>
<g>
</g>
<g>
</g>
<g>
</g>
<g>
</g>
<g>
</g>
<g>
</g>
<g>
</g>
<g>
</g>
<g>
</g>
<g>
</g>
<g>
</g>
</svg>
